PathFileType	4	(X/Y/Z)	OpenSim_Sub01_EMGStiffKnee_Gyro.trc
DataRate	CameraRate	NumFrames	NumMarkers	Units	OrigDataRate	OrigDataStartFrame	OrigNumFrames
100	100	20	8	m	100	2088	5567
Frame#	Time	torso_imu_offset_imu	pelvis_imu_offset_imu	tibia_r_imu_offset_imu	femur_r_imu_offset_imu	tibia_l_imu_offset_imu	femur_l_imu_offset_imu	toes_r_imu_offset_imu	toes_l_imu_offset_imu
				X1	Y1	Z1	X2	Y2	Z2	X3	Y3	Z3	X4	Y4	Z4	X5	Y5	Z5	X6	Y6	Z6	X7	Y7	Z7	X8		Y8	Z8	

2088	20.87000000	-0.52525291	0.07135901	-0.46349333	-0.48892238	0.30386176	0.13258426	0.37506896	-0.25916372	-1.51325923	-1.13281338	0.05961008	1.72022973	0.30798164	-0.17396556	0.75701821	1.10565369	-0.37187805	1.04830006	-0.60241049	0.15801377	-1.17812992	0.12117012	-0.27820350	-0.04665877
2089	20.88000000	-0.54585574	0.05960697	-0.49632391	-0.45443650	0.32348447	0.12605514	-0.33554172	-0.32163623	-1.07099601	-1.06351590	0.06635727	1.75208292	0.05733202	-0.13274134	0.68824638	1.04214427	-0.38961094	0.80150361	-0.35246220	1.14860708	-1.14631430	0.11123461	-0.27756208	-0.04281652
2090	20.89000000	-0.56230752	0.04068715	-0.51038639	-0.42612162	0.29794973	0.13913462	-1.00883231	-0.37693299	-0.45626654	-0.94440881	0.08257186	1.74433369	-0.08008364	-0.09743252	0.62860137	0.87709177	-0.41340910	0.64269645	-0.20179828	1.75347325	-1.08991918	0.09379757	-0.27492581	-0.03137415
2091	20.90000000	-0.57829591	0.01063547	-0.50281741	-0.41197792	0.24081140	0.17650101	-1.40305827	-0.35773495	0.28132717	-0.79856226	0.09775625	1.68377703	-0.04764608	-0.07434697	0.60178313	0.66725416	-0.41541388	0.61843983	-0.32012762	2.01315379	-0.92370483	0.08050814	-0.26977645	-0.01847825
2092	20.91000000	-0.58951055	-0.02392365	-0.47722260	-0.40088283	0.16700800	0.23399107	-1.48545399	-0.30226462	0.98738688	-0.62512225	0.10391245	1.58406088	0.08978033	-0.06026015	0.60498195	0.44307743	-0.40567845	0.67492609	-0.48308564	2.15760452	-0.67465750	0.06960244	-0.26671466	-0.00737466
2093	20.92000000	-0.59047851	-0.05490616	-0.43856050	-0.37895405	0.09156212	0.30529898	-1.26943417	-0.26497520	1.49837753	-0.41961094	0.09440333	1.46376853	0.24631833	-0.05016190	0.63006662	0.22990769	-0.40051630	0.74185878	-0.41433146	2.43549464	-0.38879557	0.05709411	-0.27077254	-0.00058460
2094	20.93000000	-0.58045758	-0.08167983	-0.39413788	-0.34391701	0.02692323	0.37651859	-0.88128417	-0.25120698	1.80396021	-0.18951045	0.07603982	1.34104395	0.35775101	-0.03869422	0.66261759	0.04957174	-0.40503454	0.77988275	-0.14997787	2.85150118	-0.08644996	0.04284820	-0.27927712	0.00218800
2095	20.94000000	-0.56234662	-0.10934730	-0.35306668	-0.30243205	-0.01644290	0.42789695	-0.53412579	-0.22849949	2.01171115	0.04848937	0.06598009	1.23368958	0.37655553	-0.02023384	0.68338110	-0.07881849	-0.41571269	0.77347140	0.03341682	3.22252742	0.23181516	0.02969384	-0.28362639	0.00340784
2096	20.95000000	-0.53830096	-0.14107386	-0.32124650	-0.26032313	-0.03194604	0.44469659	-0.37481322	-0.17200800	2.21154068	0.27637639	0.07489864	1.15506174	0.28216173	0.00762181	0.68174802	-0.14381897	-0.42773725	0.72082360	-0.03811642	3.42947331	0.55607439	0.01949847	-0.27821103	0.00543053
2097	20.96000000	-0.50798830	-0.17382970	-0.29489376	-0.22024614	-0.02436021	0.42753014	-0.34665430	-0.08240654	2.43185329	0.47291315	0.09341338	1.10533150	0.13281113	0.03768491	0.67316555	-0.15656265	-0.43311201	0.65910109	-0.21533220	3.55775254	0.84707518	0.01104553	-0.26676739	0.01012173
2098	20.97000000	-0.47071449	-0.20359661	-0.26870490	-0.18428985	-0.00070699	0.38044028	-0.35876295	0.03391767	2.68791083	0.61704225	0.10897155	1.08178420	-0.00088576	0.06123088	0.67664118	-0.13265485	-0.42410276	0.63012137	-0.30058378	3.72357147	1.06225552	0.00253351	-0.25442193	0.01930796
2099	20.98000000	-0.42725362	-0.22870486	-0.24142080	-0.15482157	0.02980077	0.31632836	-0.37170622	0.15568760	2.96847264	0.69932394	0.11706249	1.07500194	-0.08126764	0.07307103	0.69237236	-0.09216344	-0.40570083	0.63757889	-0.26614459	3.93811493	1.19066556	-0.00805982	-0.24124716	0.03558586
2100	20.99000000	-0.37951002	-0.24929241	-0.21489532	-0.13442118	0.05626677	0.25491068	-0.38564777	0.25017579	3.24190267	0.71926016	0.11936371	1.07040804	-0.09604983	0.07074086	0.70608012	-0.05858510	-0.39269037	0.65582586	-0.21506797	4.13173921	1.24569110	-0.02292663	-0.22342546	0.06214449
2101	21.00000000	-0.32942352	-0.26526297	-0.19043659	-0.12323317	0.07229798	0.21012565	-0.38569946	0.30006720	3.48435781	0.67452674	0.11414030	1.05517084	-0.04984369	0.05471186	0.70786900	-0.04695586	-0.39571934	0.66506988	-0.22069045	4.25561556	1.24216454	-0.04432517	-0.19767885	0.10166285
2102	21.01000000	-0.27895308	-0.27568604	-0.16749340	-0.11414915	0.08501114	0.17822229	-0.30922145	0.33471873	3.69671004	0.55668989	0.08904476	1.02203820	0.00447399	0.03397147	0.70197536	-0.04690944	-0.41239691	0.66516022	-0.25805116	4.32894343	1.19735647	-0.07469713	-0.16262999	0.15525897
2103	21.02000000	-0.23005472	-0.27957720	-0.14517552	-0.09926132	0.10344261	0.15259409	-0.09159102	0.38987733	3.88375638	0.35891022	0.03132313	0.96519673	0.00813330	0.01884963	0.69517336	-0.04423330	-0.43771503	0.65944238	-0.28532409	4.38177203	1.12936097	-0.11582250	-0.11763304	0.22299808
2104	21.03000000	-0.18458738	-0.27745273	-0.12266388	-0.07876514	0.12797793	0.13284382	0.22938251	0.46778974	4.04065156	0.11510686	-0.04850158	0.88492635	-0.05229057	0.01620501	0.69311563	-0.03743680	-0.46357547	0.64923898	-0.28026341	4.41830102	1.06184906	-0.15907303	-0.06772968	0.29350979
2105	21.04000000	-0.14433472	-0.27098396	-0.09919455	-0.05909204	0.15234490	0.12335212	0.53705551	0.54491948	4.15513352	-0.10943695	-0.12199360	0.78619848	-0.15531273	0.03022018	0.70058849	-0.03482351	-0.47950334	0.63431613	-0.23570281	4.42283257	1.02277625	-0.18781309	-0.02233873	0.34662593
2106	21.05000000	-0.11035274	-0.26162423	-0.07449802	-0.04432911	0.17238200	0.12589893	0.73665797	0.60416324	4.22249715	-0.26440127	-0.16816603	0.67528467	-0.27453233	0.05975933	0.71841855	-0.04617567	-0.47784472	0.61535550	-0.15378045	4.38120202	1.02878911	-0.19169303	0.01042238	0.36895575
2107	21.06000000	-0.08154091	-0.25009081	-0.04976974	-0.03112086	0.19070816	0.13417122	0.80444136	0.64950404	4.26105922	-0.34632579	-0.18953470	0.56196113	-0.37160954	0.08808800	0.73573281	-0.08492048	-0.45950979	0.59587824	-0.06312939	4.28532135	1.06260308	-0.17965358	0.02663779	0.36791976
